<mxfile host="app.diagrams.net" modified="2021-02-13T09:35:01.968Z" agent="5.0 (Windows NT 10.0; Win64; x64) AppleWebKit/537.36 (KHTML, like Gecko) Chrome/88.0.4324.104 Safari/537.36" etag="6JBqqEwoMaIQ1qEtaUsi" version="14.3.1" type="github" pages="2">
  <diagram id="VlLsC9m3_1XqTRsrqYUZ" name="Page-1">
    <mxGraphModel dx="2557" dy="1213" grid="0" gridSize="10" guides="1" tooltips="1" connect="1" arrows="1" fold="1" page="0" pageScale="1" pageWidth="827" pageHeight="1169" math="0" shadow="0">
      <root>
        <mxCell id="0" />
        <mxCell id="1" parent="0" />
        <mxCell id="JpuWKBtfFEKFHU9fNrxq-3" value="" style="group" vertex="1" connectable="0" parent="1">
          <mxGeometry x="1089" y="768" width="486" height="33" as="geometry" />
        </mxCell>
        <mxCell id="JpuWKBtfFEKFHU9fNrxq-4" value="" style="shape=partialRectangle;whiteSpace=wrap;html=1;bottom=1;right=1;left=1;top=0;fillColor=none;routingCenterX=-0.5;strokeWidth=3;" vertex="1" parent="JpuWKBtfFEKFHU9fNrxq-3">
          <mxGeometry width="121.5" height="33" as="geometry" />
        </mxCell>
        <mxCell id="JpuWKBtfFEKFHU9fNrxq-5" value="" style="shape=partialRectangle;whiteSpace=wrap;html=1;bottom=1;right=1;left=1;top=0;fillColor=none;routingCenterX=-0.5;strokeWidth=3;" vertex="1" parent="JpuWKBtfFEKFHU9fNrxq-3">
          <mxGeometry x="121.5" width="121.5" height="33" as="geometry" />
        </mxCell>
        <mxCell id="JpuWKBtfFEKFHU9fNrxq-6" value="" style="shape=partialRectangle;whiteSpace=wrap;html=1;bottom=1;right=1;left=1;top=0;fillColor=none;routingCenterX=-0.5;strokeWidth=3;" vertex="1" parent="JpuWKBtfFEKFHU9fNrxq-3">
          <mxGeometry x="243" width="121.5" height="33" as="geometry" />
        </mxCell>
        <mxCell id="JpuWKBtfFEKFHU9fNrxq-7" value="" style="shape=partialRectangle;whiteSpace=wrap;html=1;bottom=1;right=1;left=1;top=0;fillColor=none;routingCenterX=-0.5;strokeWidth=3;" vertex="1" parent="JpuWKBtfFEKFHU9fNrxq-3">
          <mxGeometry x="364.5" width="121.5" height="33" as="geometry" />
        </mxCell>
        <mxCell id="JpuWKBtfFEKFHU9fNrxq-8" value="" style="endArrow=none;html=1;strokeWidth=6;fillColor=#dae8fc;strokeColor=#6c8ebf;" edge="1" parent="1">
          <mxGeometry width="50" height="50" relative="1" as="geometry">
            <mxPoint x="1089" y="734.0000000000002" as="sourcePoint" />
            <mxPoint x="1336" y="734.0000000000002" as="targetPoint" />
          </mxGeometry>
        </mxCell>
        <mxCell id="JpuWKBtfFEKFHU9fNrxq-9" value="" style="endArrow=none;html=1;strokeWidth=6;fillColor=#e51400;strokeColor=#B20000;" edge="1" parent="1">
          <mxGeometry width="50" height="50" relative="1" as="geometry">
            <mxPoint x="1211" y="690" as="sourcePoint" />
            <mxPoint x="1458" y="690" as="targetPoint" />
          </mxGeometry>
        </mxCell>
        <mxCell id="JpuWKBtfFEKFHU9fNrxq-10" value="" style="endArrow=none;html=1;strokeWidth=6;fillColor=#a0522d;strokeColor=#000099;" edge="1" parent="1">
          <mxGeometry width="50" height="50" relative="1" as="geometry">
            <mxPoint x="1328" y="653" as="sourcePoint" />
            <mxPoint x="1575" y="653" as="targetPoint" />
          </mxGeometry>
        </mxCell>
        <mxCell id="JpuWKBtfFEKFHU9fNrxq-11" value="0" style="text;html=1;strokeColor=none;fillColor=none;align=center;verticalAlign=middle;whiteSpace=wrap;rounded=0;fontSize=24;fontColor=#00331A;" vertex="1" parent="1">
          <mxGeometry x="1069" y="827" width="40" height="20" as="geometry" />
        </mxCell>
        <mxCell id="JpuWKBtfFEKFHU9fNrxq-12" value="1" style="text;html=1;strokeColor=none;fillColor=none;align=center;verticalAlign=middle;whiteSpace=wrap;rounded=0;fontSize=24;fontColor=#00331A;" vertex="1" parent="1">
          <mxGeometry x="1198" y="827" width="40" height="20" as="geometry" />
        </mxCell>
        <mxCell id="JpuWKBtfFEKFHU9fNrxq-13" value="2" style="text;html=1;strokeColor=none;fillColor=none;align=center;verticalAlign=middle;whiteSpace=wrap;rounded=0;fontSize=24;fontColor=#00331A;" vertex="1" parent="1">
          <mxGeometry x="1317" y="827" width="40" height="20" as="geometry" />
        </mxCell>
        <mxCell id="JpuWKBtfFEKFHU9fNrxq-14" value="3" style="text;html=1;strokeColor=none;fillColor=none;align=center;verticalAlign=middle;whiteSpace=wrap;rounded=0;fontSize=24;fontColor=#00331A;" vertex="1" parent="1">
          <mxGeometry x="1444" y="827" width="40" height="20" as="geometry" />
        </mxCell>
        <mxCell id="JpuWKBtfFEKFHU9fNrxq-15" value="4" style="text;html=1;strokeColor=none;fillColor=none;align=center;verticalAlign=middle;whiteSpace=wrap;rounded=0;fontSize=24;fontColor=#00331A;" vertex="1" parent="1">
          <mxGeometry x="1556" y="827" width="40" height="20" as="geometry" />
        </mxCell>
        <mxCell id="JpuWKBtfFEKFHU9fNrxq-16" value="" style="curved=1;endArrow=classic;html=1;strokeWidth=2;fontSize=24;fontColor=#00331A;dashed=1;strokeColor=#CC0066;exitX=0.5;exitY=0;exitDx=0;exitDy=0;" edge="1" parent="1" source="JpuWKBtfFEKFHU9fNrxq-17">
          <mxGeometry width="50" height="50" relative="1" as="geometry">
            <mxPoint x="1250" y="896" as="sourcePoint" />
            <mxPoint x="1330" y="741" as="targetPoint" />
            <Array as="points">
              <mxPoint x="1278" y="852" />
            </Array>
          </mxGeometry>
        </mxCell>
        <mxCell id="JpuWKBtfFEKFHU9fNrxq-17" value="&lt;font style=&quot;font-size: 12px&quot;&gt;它的右端点最靠左边&lt;br&gt;右端点越靠左边妨碍越小&lt;br&gt;&lt;/font&gt;" style="text;html=1;strokeColor=none;align=center;verticalAlign=middle;whiteSpace=wrap;rounded=0;fontSize=24;fontColor=#00331A;labelBorderColor=#CC0066;" vertex="1" parent="1">
          <mxGeometry x="1187" y="855" width="177" height="76" as="geometry" />
        </mxCell>
        <mxCell id="JpuWKBtfFEKFHU9fNrxq-18" value="" style="group" vertex="1" connectable="0" parent="1">
          <mxGeometry x="1759" y="754" width="486" height="33" as="geometry" />
        </mxCell>
        <mxCell id="JpuWKBtfFEKFHU9fNrxq-19" value="" style="shape=partialRectangle;whiteSpace=wrap;html=1;bottom=1;right=1;left=1;top=0;fillColor=none;routingCenterX=-0.5;strokeWidth=3;" vertex="1" parent="JpuWKBtfFEKFHU9fNrxq-18">
          <mxGeometry width="121.5" height="33" as="geometry" />
        </mxCell>
        <mxCell id="JpuWKBtfFEKFHU9fNrxq-20" value="" style="shape=partialRectangle;whiteSpace=wrap;html=1;bottom=1;right=1;left=1;top=0;fillColor=none;routingCenterX=-0.5;strokeWidth=3;" vertex="1" parent="JpuWKBtfFEKFHU9fNrxq-18">
          <mxGeometry x="121.5" width="121.5" height="33" as="geometry" />
        </mxCell>
        <mxCell id="JpuWKBtfFEKFHU9fNrxq-21" value="" style="shape=partialRectangle;whiteSpace=wrap;html=1;bottom=1;right=1;left=1;top=0;fillColor=none;routingCenterX=-0.5;strokeWidth=3;" vertex="1" parent="JpuWKBtfFEKFHU9fNrxq-18">
          <mxGeometry x="243" width="121.5" height="33" as="geometry" />
        </mxCell>
        <mxCell id="JpuWKBtfFEKFHU9fNrxq-22" value="" style="shape=partialRectangle;whiteSpace=wrap;html=1;bottom=1;right=1;left=1;top=0;fillColor=none;routingCenterX=-0.5;strokeWidth=3;" vertex="1" parent="JpuWKBtfFEKFHU9fNrxq-18">
          <mxGeometry x="364.5" width="121.5" height="33" as="geometry" />
        </mxCell>
        <mxCell id="JpuWKBtfFEKFHU9fNrxq-23" value="" style="endArrow=none;html=1;strokeWidth=6;fillColor=#dae8fc;strokeColor=#6c8ebf;" edge="1" parent="1">
          <mxGeometry width="50" height="50" relative="1" as="geometry">
            <mxPoint x="1759" y="720" as="sourcePoint" />
            <mxPoint x="2006" y="720" as="targetPoint" />
          </mxGeometry>
        </mxCell>
        <mxCell id="JpuWKBtfFEKFHU9fNrxq-24" value="" style="endArrow=none;html=1;strokeWidth=6;fillColor=#e51400;strokeColor=#B20000;" edge="1" parent="1">
          <mxGeometry width="50" height="50" relative="1" as="geometry">
            <mxPoint x="1882" y="658" as="sourcePoint" />
            <mxPoint x="2000.5" y="658" as="targetPoint" />
          </mxGeometry>
        </mxCell>
        <mxCell id="JpuWKBtfFEKFHU9fNrxq-25" value="0" style="text;html=1;strokeColor=none;fillColor=none;align=center;verticalAlign=middle;whiteSpace=wrap;rounded=0;fontSize=24;fontColor=#00331A;" vertex="1" parent="1">
          <mxGeometry x="1739" y="813" width="40" height="20" as="geometry" />
        </mxCell>
        <mxCell id="JpuWKBtfFEKFHU9fNrxq-26" value="1" style="text;html=1;strokeColor=none;fillColor=none;align=center;verticalAlign=middle;whiteSpace=wrap;rounded=0;fontSize=24;fontColor=#00331A;" vertex="1" parent="1">
          <mxGeometry x="1868" y="813" width="40" height="20" as="geometry" />
        </mxCell>
        <mxCell id="JpuWKBtfFEKFHU9fNrxq-27" value="2" style="text;html=1;strokeColor=none;fillColor=none;align=center;verticalAlign=middle;whiteSpace=wrap;rounded=0;fontSize=24;fontColor=#00331A;" vertex="1" parent="1">
          <mxGeometry x="1987" y="813" width="40" height="20" as="geometry" />
        </mxCell>
        <mxCell id="JpuWKBtfFEKFHU9fNrxq-28" value="3" style="text;html=1;strokeColor=none;fillColor=none;align=center;verticalAlign=middle;whiteSpace=wrap;rounded=0;fontSize=24;fontColor=#00331A;" vertex="1" parent="1">
          <mxGeometry x="2114" y="813" width="40" height="20" as="geometry" />
        </mxCell>
        <mxCell id="JpuWKBtfFEKFHU9fNrxq-29" value="4" style="text;html=1;strokeColor=none;fillColor=none;align=center;verticalAlign=middle;whiteSpace=wrap;rounded=0;fontSize=24;fontColor=#00331A;" vertex="1" parent="1">
          <mxGeometry x="2226" y="813" width="40" height="20" as="geometry" />
        </mxCell>
        <mxCell id="JpuWKBtfFEKFHU9fNrxq-30" value="" style="curved=1;endArrow=classic;html=1;dashed=1;strokeColor=#CC0066;strokeWidth=2;fontSize=24;fontColor=#00331A;exitX=0;exitY=0.5;exitDx=0;exitDy=0;" edge="1" parent="1" source="JpuWKBtfFEKFHU9fNrxq-31">
          <mxGeometry width="50" height="50" relative="1" as="geometry">
            <mxPoint x="1960" y="538" as="sourcePoint" />
            <mxPoint x="1995" y="650" as="targetPoint" />
            <Array as="points">
              <mxPoint x="2007" y="586" />
            </Array>
          </mxGeometry>
        </mxCell>
        <mxCell id="JpuWKBtfFEKFHU9fNrxq-31" value="优先选择这根线段" style="text;html=1;strokeColor=none;fillColor=none;align=center;verticalAlign=middle;whiteSpace=wrap;rounded=0;fontSize=24;fontColor=#00331A;labelBorderColor=#99004D;" vertex="1" parent="1">
          <mxGeometry x="2062" y="582" width="215" height="38" as="geometry" />
        </mxCell>
        <mxCell id="JpuWKBtfFEKFHU9fNrxq-32" value="" style="rounded=0;whiteSpace=wrap;html=1;strokeWidth=3;fillColor=none;fontSize=24;fontColor=#00331A;align=center;" vertex="1" parent="1">
          <mxGeometry x="1416" y="1653" width="66" height="204" as="geometry" />
        </mxCell>
        <mxCell id="JpuWKBtfFEKFHU9fNrxq-33" value="" style="rounded=0;whiteSpace=wrap;html=1;strokeWidth=3;fillColor=none;fontSize=24;fontColor=#00331A;align=center;" vertex="1" parent="1">
          <mxGeometry x="1273" y="1615" width="66" height="242" as="geometry" />
        </mxCell>
        <mxCell id="JpuWKBtfFEKFHU9fNrxq-34" value="" style="rounded=0;whiteSpace=wrap;html=1;strokeWidth=3;fillColor=none;fontSize=24;fontColor=#00331A;align=center;" vertex="1" parent="1">
          <mxGeometry x="1560" y="1444" width="66" height="413" as="geometry" />
        </mxCell>
        <mxCell id="JpuWKBtfFEKFHU9fNrxq-35" value="" style="rounded=0;whiteSpace=wrap;html=1;strokeWidth=3;fillColor=none;fontSize=24;fontColor=#00331A;align=center;" vertex="1" parent="1">
          <mxGeometry x="1699" y="1706" width="66" height="151" as="geometry" />
        </mxCell>
        <mxCell id="JpuWKBtfFEKFHU9fNrxq-36" value="9" style="text;html=1;strokeColor=none;fillColor=none;align=center;verticalAlign=middle;whiteSpace=wrap;rounded=0;fontSize=24;fontColor=#00331A;" vertex="1" parent="1">
          <mxGeometry x="1286" y="1883" width="40" height="20" as="geometry" />
        </mxCell>
        <mxCell id="JpuWKBtfFEKFHU9fNrxq-37" value="8" style="text;html=1;strokeColor=none;fillColor=none;align=center;verticalAlign=middle;whiteSpace=wrap;rounded=0;fontSize=24;fontColor=#00331A;" vertex="1" parent="1">
          <mxGeometry x="1429" y="1883" width="40" height="20" as="geometry" />
        </mxCell>
        <mxCell id="JpuWKBtfFEKFHU9fNrxq-38" value="17" style="text;html=1;strokeColor=none;fillColor=none;align=center;verticalAlign=middle;whiteSpace=wrap;rounded=0;fontSize=24;fontColor=#00331A;" vertex="1" parent="1">
          <mxGeometry x="1573" y="1883" width="40" height="20" as="geometry" />
        </mxCell>
        <mxCell id="JpuWKBtfFEKFHU9fNrxq-39" value="6" style="text;html=1;strokeColor=none;fillColor=none;align=center;verticalAlign=middle;whiteSpace=wrap;rounded=0;fontSize=24;fontColor=#00331A;" vertex="1" parent="1">
          <mxGeometry x="1712" y="1883" width="40" height="20" as="geometry" />
        </mxCell>
        <mxCell id="JpuWKBtfFEKFHU9fNrxq-40" value="" style="endArrow=none;dashed=1;html=1;strokeColor=#CC0066;strokeWidth=2;fontSize=24;fontColor=#00331A;" edge="1" parent="1">
          <mxGeometry width="50" height="50" relative="1" as="geometry">
            <mxPoint x="1161" y="1562" as="sourcePoint" />
            <mxPoint x="2014" y="1562" as="targetPoint" />
          </mxGeometry>
        </mxCell>
        <mxCell id="JpuWKBtfFEKFHU9fNrxq-41" value="10" style="text;html=1;align=center;verticalAlign=middle;resizable=0;points=[];autosize=1;fontSize=24;fontColor=#00331A;" vertex="1" parent="1">
          <mxGeometry x="2014" y="1544" width="36" height="33" as="geometry" />
        </mxCell>
        <mxCell id="JpuWKBtfFEKFHU9fNrxq-42" style="edgeStyle=orthogonalEdgeStyle;rounded=0;orthogonalLoop=1;jettySize=auto;html=1;exitX=0.5;exitY=1;exitDx=0;exitDy=0;dashed=1;strokeColor=#CC0066;strokeWidth=2;fontSize=20;fontColor=#00331A;" edge="1" parent="1" source="JpuWKBtfFEKFHU9fNrxq-43" target="JpuWKBtfFEKFHU9fNrxq-49">
          <mxGeometry relative="1" as="geometry" />
        </mxCell>
        <mxCell id="JpuWKBtfFEKFHU9fNrxq-43" value="9想要达到10，必须向8借1" style="rounded=1;whiteSpace=wrap;html=1;strokeWidth=3;fillColor=#fff2cc;fontSize=24;gradientColor=#ffd966;strokeColor=#d6b656;" vertex="1" parent="1">
          <mxGeometry x="2087" y="1239" width="248" height="118" as="geometry" />
        </mxCell>
        <mxCell id="JpuWKBtfFEKFHU9fNrxq-44" style="edgeStyle=orthogonalEdgeStyle;rounded=0;orthogonalLoop=1;jettySize=auto;html=1;dashed=1;strokeColor=#CC0066;strokeWidth=2;fontSize=20;fontColor=#00331A;exitX=0.5;exitY=1;exitDx=0;exitDy=0;" edge="1" parent="1" source="JpuWKBtfFEKFHU9fNrxq-53" target="JpuWKBtfFEKFHU9fNrxq-51">
          <mxGeometry relative="1" as="geometry">
            <mxPoint x="2231" y="1682.0000000000005" as="sourcePoint" />
          </mxGeometry>
        </mxCell>
        <mxCell id="JpuWKBtfFEKFHU9fNrxq-45" value="17被借3之后剩余14，多了4个，给右边的6" style="whiteSpace=wrap;html=1;rounded=1;fontSize=24;strokeWidth=3;fillColor=#fff2cc;gradientColor=#ffd966;strokeColor=#d6b656;" vertex="1" parent="1">
          <mxGeometry x="2088.5" y="1948" width="245" height="108.5" as="geometry" />
        </mxCell>
        <mxCell id="JpuWKBtfFEKFHU9fNrxq-46" value="" style="shape=partialRectangle;whiteSpace=wrap;html=1;bottom=1;right=1;left=1;top=0;fillColor=none;routingCenterX=-0.5;rounded=1;strokeWidth=3;fontSize=24;fontColor=#00331A;direction=north;" vertex="1" parent="1">
          <mxGeometry x="2371" y="1279" width="59" height="721" as="geometry" />
        </mxCell>
        <mxCell id="JpuWKBtfFEKFHU9fNrxq-47" value="最多n-1次挪动" style="text;html=1;strokeColor=none;fillColor=none;align=center;verticalAlign=middle;whiteSpace=wrap;rounded=0;fontSize=24;fontColor=#00331A;" vertex="1" parent="1">
          <mxGeometry x="2374" y="1603" width="320" height="20" as="geometry" />
        </mxCell>
        <mxCell id="JpuWKBtfFEKFHU9fNrxq-48" style="edgeStyle=orthogonalEdgeStyle;rounded=0;orthogonalLoop=1;jettySize=auto;html=1;exitX=0.5;exitY=1;exitDx=0;exitDy=0;entryX=0.5;entryY=0;entryDx=0;entryDy=0;dashed=1;strokeColor=#CC0066;strokeWidth=2;fontSize=20;fontColor=#00331A;" edge="1" parent="1" source="JpuWKBtfFEKFHU9fNrxq-49" target="JpuWKBtfFEKFHU9fNrxq-53">
          <mxGeometry relative="1" as="geometry">
            <mxPoint x="2220.7599999999998" y="1584.4372500000004" as="targetPoint" />
          </mxGeometry>
        </mxCell>
        <mxCell id="JpuWKBtfFEKFHU9fNrxq-49" value="第一堆牌达到10，将其“删除”" style="text;html=1;strokeColor=none;fillColor=none;align=center;verticalAlign=middle;whiteSpace=wrap;rounded=0;fontSize=20;fontColor=#00331A;" vertex="1" parent="1">
          <mxGeometry x="2075" y="1459" width="272" height="20" as="geometry" />
        </mxCell>
        <mxCell id="JpuWKBtfFEKFHU9fNrxq-50" style="edgeStyle=orthogonalEdgeStyle;rounded=0;orthogonalLoop=1;jettySize=auto;html=1;dashed=1;strokeColor=#CC0066;strokeWidth=2;fontSize=20;fontColor=#00331A;" edge="1" parent="1" source="JpuWKBtfFEKFHU9fNrxq-51" target="JpuWKBtfFEKFHU9fNrxq-45">
          <mxGeometry relative="1" as="geometry" />
        </mxCell>
        <mxCell id="JpuWKBtfFEKFHU9fNrxq-51" value="&lt;span&gt;第二堆牌达到10，将其“删除”&lt;/span&gt;" style="text;html=1;strokeColor=none;fillColor=none;align=center;verticalAlign=middle;whiteSpace=wrap;rounded=0;fontSize=20;fontColor=#00331A;" vertex="1" parent="1">
          <mxGeometry x="2032.5" y="1831" width="357" height="20" as="geometry" />
        </mxCell>
        <mxCell id="JpuWKBtfFEKFHU9fNrxq-52" value="9想要达到10，必须向8借1" style="rounded=1;whiteSpace=wrap;html=1;strokeWidth=3;fillColor=#fff2cc;fontSize=24;gradientColor=#ffd966;strokeColor=#d6b656;" vertex="1" parent="1">
          <mxGeometry x="2087" y="1239" width="248" height="118" as="geometry" />
        </mxCell>
        <mxCell id="JpuWKBtfFEKFHU9fNrxq-53" value="8被借了1之后，剩余7，需要向17借3" style="whiteSpace=wrap;html=1;rounded=1;fontSize=24;strokeWidth=3;fillColor=#fff2cc;gradientColor=#ffd966;strokeColor=#d6b656;" vertex="1" parent="1">
          <mxGeometry x="2083" y="1571.37" width="256" height="99.25" as="geometry" />
        </mxCell>
      </root>
    </mxGraphModel>
  </diagram>
  <diagram id="jqukf47hJeksSW66z2Y4" name="第 2 页">
    <mxGraphModel dx="2014" dy="968" grid="1" gridSize="10" guides="1" tooltips="1" connect="1" arrows="1" fold="1" page="1" pageScale="1" pageWidth="827" pageHeight="1169" math="0" shadow="0">
      <root>
        <mxCell id="4iyUD7GeV01Z5iJQr7pV-0" />
        <mxCell id="4iyUD7GeV01Z5iJQr7pV-1" parent="4iyUD7GeV01Z5iJQr7pV-0" />
      </root>
    </mxGraphModel>
  </diagram>
</mxfile>
